<mxfile host="app.diagrams.net" modified="2024-07-08T03:58:10.638Z" agent="Mozilla/5.0 (Macintosh; Intel Mac OS X 10_15_7) AppleWebKit/537.36 (KHTML, like Gecko) Chrome/126.0.0.0 Safari/537.36" etag="OB2HqHl0qKiRRhemFPSw" version="24.4.4" type="github">
  <diagram name="Trang-1" id="gUSEK9HKp-Kbn271MHY7">
    <mxGraphModel dx="989" dy="751" grid="1" gridSize="10" guides="1" tooltips="1" connect="1" arrows="1" fold="1" page="1" pageScale="1" pageWidth="827" pageHeight="1169" math="0" shadow="0">
      <root>
        <mxCell id="0" />
        <mxCell id="1" parent="0" />
        <mxCell id="qzkW9SlaIyMxQ-gw-VgZ-1" value="&lt;font style=&quot;font-size: 14px;&quot;&gt;Keyring&lt;/font&gt;" style="rounded=1;whiteSpace=wrap;html=1;" vertex="1" parent="1">
          <mxGeometry x="100" y="50" width="120" height="60" as="geometry" />
        </mxCell>
        <mxCell id="qzkW9SlaIyMxQ-gw-VgZ-2" value="&lt;font style=&quot;font-size: 14px;&quot;&gt;HD Keyring&lt;/font&gt;&lt;div&gt;&lt;font size=&quot;3&quot;&gt;(có thể tạo nhiều acc)&lt;/font&gt;&lt;/div&gt;" style="rounded=1;whiteSpace=wrap;html=1;" vertex="1" parent="1">
          <mxGeometry x="320" width="200" height="60" as="geometry" />
        </mxCell>
        <mxCell id="qzkW9SlaIyMxQ-gw-VgZ-3" value="&lt;font style=&quot;font-size: 14px;&quot;&gt;Simple Keyring&lt;/font&gt;&lt;div&gt;&lt;font size=&quot;3&quot;&gt;(chỉ tạo duy nhất 1 acc)&lt;/font&gt;&lt;/div&gt;" style="rounded=1;whiteSpace=wrap;html=1;" vertex="1" parent="1">
          <mxGeometry x="330" y="100" width="200" height="60" as="geometry" />
        </mxCell>
        <mxCell id="qzkW9SlaIyMxQ-gw-VgZ-4" value="&lt;font style=&quot;font-size: 14px;&quot;&gt;Account&lt;br&gt;(có thể hiểu là 1 địa chỉ vỉ)&lt;/font&gt;" style="rounded=1;whiteSpace=wrap;html=1;" vertex="1" parent="1">
          <mxGeometry x="570" y="40" width="165" height="60" as="geometry" />
        </mxCell>
        <mxCell id="qzkW9SlaIyMxQ-gw-VgZ-6" value="&lt;h1 style=&quot;margin-top: 0px;&quot;&gt;Các function, interface đang dùng của unisat&lt;/h1&gt;&lt;p&gt;&lt;font style=&quot;font-size: 18px;&quot;&gt;- SDK: Instance cho&amp;nbsp; keyring, account và các tính năng của keyring, account&lt;/font&gt;&lt;/p&gt;&lt;p&gt;&lt;font style=&quot;font-size: 18px;&quot;&gt;- Api; Get asset info, send blance, send transaction&lt;/font&gt;&lt;/p&gt;&lt;p&gt;&lt;font style=&quot;font-size: 18px;&quot;&gt;- Các function lấy theo ext: Boot, initAliasName, isReady, unlock, import, export , remove wl..&lt;/font&gt;&lt;/p&gt;&lt;p&gt;&lt;font style=&quot;font-size: 18px;&quot;&gt;- Interface: redux, persit store, blockchain asset, ...&lt;/font&gt;&lt;/p&gt;" style="text;html=1;whiteSpace=wrap;overflow=hidden;rounded=0;" vertex="1" parent="1">
          <mxGeometry x="90" y="400" width="430" height="250" as="geometry" />
        </mxCell>
        <mxCell id="qzkW9SlaIyMxQ-gw-VgZ-8" value="" style="endArrow=classic;html=1;rounded=0;exitX=1;exitY=0.5;exitDx=0;exitDy=0;entryX=0;entryY=0.5;entryDx=0;entryDy=0;" edge="1" parent="1" source="qzkW9SlaIyMxQ-gw-VgZ-1" target="qzkW9SlaIyMxQ-gw-VgZ-2">
          <mxGeometry width="50" height="50" relative="1" as="geometry">
            <mxPoint x="390" y="490" as="sourcePoint" />
            <mxPoint x="440" y="440" as="targetPoint" />
          </mxGeometry>
        </mxCell>
        <mxCell id="qzkW9SlaIyMxQ-gw-VgZ-9" value="" style="endArrow=classic;html=1;rounded=0;exitX=1;exitY=0.5;exitDx=0;exitDy=0;entryX=0;entryY=0.5;entryDx=0;entryDy=0;" edge="1" parent="1" source="qzkW9SlaIyMxQ-gw-VgZ-1" target="qzkW9SlaIyMxQ-gw-VgZ-3">
          <mxGeometry width="50" height="50" relative="1" as="geometry">
            <mxPoint x="130" y="40" as="sourcePoint" />
            <mxPoint x="320" y="280" as="targetPoint" />
          </mxGeometry>
        </mxCell>
        <mxCell id="qzkW9SlaIyMxQ-gw-VgZ-14" value="&lt;h1 style=&quot;margin-top: 0px;&quot;&gt;Các function, instance có thể sửa&lt;/h1&gt;&lt;p&gt;&lt;font style=&quot;font-size: 18px;&quot;&gt;- mình sẽ đổi đối tượng keyring =&amp;gt; wallet và bỏ account&lt;/font&gt;&lt;/p&gt;&lt;p&gt;&lt;font style=&quot;font-size: 18px;&quot;&gt;- đổi lại tên các function có chứa từ keyring, account ( bản chất logic k đổi )&lt;/font&gt;&lt;/p&gt;&lt;p&gt;&lt;font style=&quot;font-size: 18px;&quot;&gt;- ở ext code thì nta nhìn phát là biết của unisat, mình dùng quá nhiều code của nó, từ phần config webpack, tất cá các instance service, interface, các component dùng chung,redux, sdk, api,&lt;/font&gt;&lt;/p&gt;" style="text;html=1;whiteSpace=wrap;overflow=hidden;rounded=0;" vertex="1" parent="1">
          <mxGeometry x="80" y="680" width="640" height="200" as="geometry" />
        </mxCell>
        <mxCell id="qzkW9SlaIyMxQ-gw-VgZ-17" value="&lt;h1 style=&quot;margin-top: 0px;&quot;&gt;Instance service&lt;/h1&gt;&lt;p&gt;&lt;font style=&quot;font-size: 18px;&quot;&gt;- Preference Service: CRUD keyring/account, settings ..,&lt;/font&gt;&lt;/p&gt;&lt;p&gt;&lt;font style=&quot;font-size: 18px;&quot;&gt;- ContactBook Service: danh bạ chứa địa chỉ và tên ví&lt;/font&gt;&lt;/p&gt;&lt;p&gt;&lt;font style=&quot;font-size: 18px;&quot;&gt;- OpenAPI Service: Các api của unisat&lt;/font&gt;&lt;/p&gt;" style="text;html=1;whiteSpace=wrap;overflow=hidden;rounded=0;" vertex="1" parent="1">
          <mxGeometry x="90" y="190" width="470" height="175" as="geometry" />
        </mxCell>
        <mxCell id="qzkW9SlaIyMxQ-gw-VgZ-20" value="&lt;h1 style=&quot;margin-top: 0px;&quot;&gt;Challenge&lt;/h1&gt;&lt;h1 style=&quot;margin-top: 0px;&quot;&gt;&lt;span style=&quot;background-color: initial; font-weight: normal;&quot;&gt;&lt;font style=&quot;font-size: 18px;&quot;&gt;-&amp;nbsp; Mobile: Sẽ khá take time( dự kiến khoảng 2w để hoàn thành các phần logic hiện tại)&lt;/font&gt;&lt;/span&gt;&lt;/h1&gt;&lt;div&gt;&lt;span style=&quot;font-size: 18px;&quot;&gt;- Extension: đang sử dụng rất nhiều code của unisat nta nhìn là biết ngay,&amp;nbsp;&lt;/span&gt;&lt;span style=&quot;font-size: 18px; background-color: initial;&quot;&gt;từ phần config webpack, tất cá các instance service, interface, các component dùng chung,redux, sdk, api ( ghost case:&amp;nbsp; build lại dự kiến mất tầm 1month để kịp tiến độ hiện tại )&lt;/span&gt;&lt;/div&gt;" style="text;html=1;whiteSpace=wrap;overflow=hidden;rounded=0;" vertex="1" parent="1">
          <mxGeometry x="90" y="920" width="600" height="230" as="geometry" />
        </mxCell>
      </root>
    </mxGraphModel>
  </diagram>
</mxfile>
